<?xml version="1.0" standalone="no"?>
<!DOCTYPE svg PUBLIC "-//W3C//DTD SVG 20010904//EN"
 "http://www.w3.org/TR/2001/REC-SVG-20010904/DTD/svg10.dtd">
<svg version="1.0" xmlns="http://www.w3.org/2000/svg"
 width="172.000000pt" height="172.000000pt" viewBox="0 0 172.000000 172.000000"
 preserveAspectRatio="xMidYMid meet">
<metadata>
Created by potrace 1.14, written by Peter Selinger 2001-2017
</metadata>
<g transform="translate(0.000000,172.000000) scale(0.100000,-0.100000)"
fill="#000000" stroke="none">
<path d="M9 1256 c-6 -6 -5 -34 2 -30 9 5 10 4 14 -35 1 -13 9 -27 16 -32 8
-5 9 -9 3 -9 -5 0 -16 6 -24 13 -8 6 -4 -1 10 -17 14 -16 18 -25 10 -21 -13 8
-13 6 -1 -8 7 -9 18 -14 25 -10 6 4 6 0 -2 -9 -10 -13 -10 -17 3 -21 8 -4 12
-13 9 -22 -4 -9 -1 -15 7 -15 11 0 11 -3 -1 -10 -12 -7 -12 -10 -1 -10 9 0 11
-8 7 -27 l-6 -28 15 25 14 25 -3 -33 c-2 -21 1 -35 10 -39 7 -2 10 -11 7 -19
-3 -7 2 -17 11 -20 9 -3 16 -16 16 -28 0 -11 4 -28 10 -36 6 -9 5 -17 -3 -22
-8 -5 -6 -8 7 -8 14 0 17 -5 13 -21 -4 -15 -2 -19 8 -15 9 3 12 0 9 -8 -6 -17
21 -68 32 -58 4 4 2 -2 -6 -12 -8 -11 -10 -17 -3 -13 6 4 14 3 18 -3 3 -5 1
-10 -6 -10 -7 0 -5 -8 7 -22 10 -12 14 -19 8 -15 -6 3 -11 0 -11 -8 0 -8 5
-13 11 -12 6 1 10 -4 8 -12 -2 -8 3 -11 11 -8 11 4 13 0 10 -14 -3 -10 1 -27
8 -36 9 -11 10 -14 2 -9 -9 5 -11 2 -7 -8 3 -9 12 -16 20 -16 8 0 14 -6 14
-12 0 -10 3 -9 9 1 7 10 10 10 13 1 3 -10 9 -10 27 0 13 6 21 8 18 3 -4 -6 8
-5 27 1 21 6 32 15 29 23 -3 7 0 13 7 13 6 0 8 5 4 12 -4 6 1 17 11 25 11 7
13 13 7 13 -7 0 -12 4 -12 9 0 5 10 7 23 4 15 -3 18 -2 9 5 -17 12 -12 34 13
50 13 9 15 12 3 8 -22 -6 -17 23 7 40 10 8 15 14 9 14 -5 0 -2 5 6 10 12 8 12
12 3 18 -10 6 -10 12 3 28 8 10 13 13 9 7 -4 -9 1 -13 15 -13 12 0 18 -4 15
-10 -3 -5 0 -10 7 -10 9 0 9 -3 -2 -10 -13 -8 -13 -10 2 -10 21 0 41 -61 24
-72 -7 -5 -4 -8 7 -8 10 0 16 -4 13 -9 -3 -5 1 -12 10 -15 8 -3 12 -11 9 -16
-4 -6 -1 -18 7 -27 11 -14 11 -16 -2 -8 -12 7 -13 6 -3 -7 7 -8 11 -17 8 -20
-3 -2 8 -17 25 -31 17 -15 30 -22 30 -15 0 8 3 9 8 3 10 -14 75 -12 80 3 2 7
9 9 14 5 7 -4 9 2 6 15 -4 14 -2 20 5 15 6 -4 8 0 4 10 -4 12 -2 14 10 10 11
-4 14 -3 9 6 -5 7 0 22 11 34 15 19 16 20 1 8 -21 -16 -24 -9 -5 11 23 24 48
88 34 88 -8 0 -8 3 2 9 7 5 11 14 7 19 -4 7 2 9 15 7 17 -3 19 -1 9 10 -8 9
-8 15 0 20 6 3 7 11 4 17 -4 6 -2 13 4 17 7 4 13 17 15 30 2 12 9 26 17 31 7
4 14 20 16 34 2 18 -1 24 -9 19 -7 -4 -6 1 2 10 11 14 17 15 30 5 13 -10 14
-10 4 2 -15 16 -17 34 -4 25 5 -3 13 0 17 6 5 8 3 9 -6 4 -13 -8 -13 -7 8 44
4 10 1 12 -9 6 -12 -8 -12 -6 0 8 7 9 17 15 21 12 4 -3 11 2 14 11 4 10 2 13
-7 8 -6 -4 -3 3 8 16 11 13 14 20 7 16 -11 -6 -11 -4 -3 10 13 26 24 58 23 66
-1 4 4 5 11 2 16 -6 15 39 -2 59 -9 12 -9 16 1 19 7 3 -15 4 -50 3 -52 -1 -67
-6 -85 -26 -18 -19 -19 -21 -2 -8 25 20 54 36 40 22 -5 -5 -23 -19 -39 -31
-16 -12 -23 -22 -15 -22 8 0 6 -6 -7 -16 -10 -8 -13 -13 -6 -9 6 3 12 1 12 -4
0 -6 -5 -11 -11 -11 -5 0 -7 -5 -3 -12 5 -8 2 -9 -10 -5 -10 4 -15 3 -11 -3 3
-6 0 -10 -7 -10 -10 0 -10 -2 1 -9 12 -8 12 -13 -3 -36 -10 -15 -14 -25 -9
-22 5 3 9 -3 9 -13 0 -12 -6 -17 -19 -14 -11 2 -17 1 -13 -3 3 -3 0 -13 -7
-21 -9 -13 -9 -14 1 -8 17 10 15 -9 -3 -24 -12 -10 -13 -16 -4 -26 8 -10 8
-14 0 -14 -6 0 -11 -5 -11 -11 0 -5 6 -7 13 -4 6 4 -1 -6 -18 -20 -16 -15 -23
-24 -15 -19 12 6 13 5 3 -7 -10 -12 -10 -18 -1 -27 9 -9 8 -12 -5 -12 -9 0
-17 -5 -17 -11 0 -5 4 -7 10 -4 6 3 7 -1 4 -10 -4 -9 -13 -14 -21 -11 -8 3
-12 2 -9 -2 3 -5 -1 -20 -9 -35 -12 -23 -11 -25 3 -20 11 5 13 3 6 -8 -5 -8
-9 -18 -9 -23 0 -5 -6 -11 -13 -13 -6 -3 -12 0 -12 7 0 6 5 8 10 5 16 -10 11
1 -7 16 -10 8 -14 9 -10 2 4 -6 4 -14 -1 -17 -7 -4 -11 9 -14 51 -1 7 -5 10
-10 7 -5 -3 -5 -10 -2 -16 5 -7 2 -8 -5 -4 -7 5 -10 15 -6 24 3 8 1 19 -6 22
-8 6 -8 14 2 31 11 22 11 23 -4 11 -14 -12 -17 -9 -25 20 -6 22 -5 35 2 40 8
5 7 8 -2 8 -14 0 -12 21 3 32 6 5 4 8 -4 8 -11 0 -9 4 4 14 11 8 24 12 29 9 5
-4 6 -1 2 5 -4 6 -14 8 -24 5 -14 -5 -14 -3 2 9 12 10 17 21 13 32 -4 9 -3 15
2 12 14 -9 21 20 8 33 -9 9 -8 10 7 5 13 -5 17 -4 12 4 -4 7 -3 12 3 12 6 0 7
7 4 17 -5 12 -3 14 8 8 11 -6 12 -5 1 6 -10 11 -8 16 10 27 13 8 15 11 6 8
-26 -8 -22 7 5 19 12 6 20 17 18 25 -2 8 -4 22 -5 31 0 15 -26 17 -64 7 -6 -2
-18 6 -26 17 -15 19 -16 19 -9 1 4 -13 3 -17 -5 -12 -8 5 -10 2 -6 -9 5 -13 1
-15 -20 -11 -28 5 -44 -8 -25 -20 8 -5 9 -3 4 6 -5 9 -4 11 4 6 8 -6 9 -12 2
-20 -6 -7 -8 -16 -4 -19 3 -4 0 -13 -7 -22 -7 -8 -10 -21 -7 -29 4 -10 1 -13
-8 -10 -10 4 -13 0 -10 -15 3 -14 -1 -21 -13 -21 -12 0 -13 -3 -5 -11 9 -9 8
-16 -3 -27 -12 -12 -18 -12 -27 -2 -9 10 -9 11 3 5 9 -5 7 1 -5 15 -12 14 -14
20 -5 15 13 -8 13 -7 1 9 -13 15 -13 19 0 27 12 7 11 9 -2 9 -18 0 -34 26 -30
48 1 8 -3 20 -9 27 -7 8 -9 18 -6 24 7 11 -11 18 -46 16 -15 -1 -26 2 -25 8 1
5 -4 12 -11 14 -8 3 -10 -1 -6 -11 5 -12 2 -15 -10 -10 -10 4 -15 13 -12 21 4
8 1 11 -5 7 -6 -3 -8 -15 -6 -26 4 -15 1 -18 -16 -13 -15 4 -18 3 -9 -3 15
-10 46 -66 32 -57 -11 7 -5 -26 9 -53 6 -11 7 -23 3 -27 -4 -5 -1 -5 6 -1 7 4
9 12 6 18 -4 7 -2 8 5 4 6 -4 9 -16 6 -27 -4 -11 -2 -19 6 -19 8 0 8 -5 -2
-17 -10 -11 -10 -14 -1 -9 11 6 14 0 11 -20 0 -4 5 -10 11 -14 7 -4 13 -19 13
-34 -1 -14 3 -23 8 -20 5 3 9 -2 9 -11 0 -10 -5 -13 -12 -9 -7 4 -5 -2 5 -13
16 -18 16 -21 2 -33 -9 -7 -13 -15 -11 -18 10 -10 -16 -43 -29 -38 -9 3 -12 0
-8 -9 3 -8 10 -12 17 -8 7 4 7 1 -1 -9 -7 -8 -10 -18 -6 -21 3 -4 1 -7 -5 -7
-6 0 -9 -7 -6 -15 4 -8 1 -15 -5 -15 -6 0 -11 -5 -11 -11 0 -5 5 -7 12 -3 6 4
8 3 4 -4 -11 -19 -66 -1 -66 21 0 7 4 6 10 -3 8 -13 10 -12 10 3 0 9 -7 17
-15 17 -9 0 -12 6 -8 17 5 11 3 14 -6 8 -10 -6 -11 -3 -1 15 10 18 9 21 -1 15
-9 -6 -11 -2 -7 13 4 12 2 20 -2 17 -5 -3 -15 8 -23 25 -10 19 -11 30 -5 30 6
0 3 10 -8 22 -19 21 -19 21 0 14 16 -5 17 -4 6 9 -7 8 -17 12 -24 8 -6 -4 -4
2 4 12 13 17 13 18 -1 13 -12 -5 -15 -1 -13 18 1 13 -2 24 -7 24 -5 0 -9 5 -9
11 0 5 6 7 13 4 6 -4 2 2 -11 14 -13 11 -18 22 -12 26 5 3 10 12 9 18 0 9 -2
8 -6 -1 -2 -6 -9 -10 -13 -7 -5 3 -7 12 -3 20 3 8 1 15 -4 15 -5 0 -9 9 -10
20 -1 13 3 18 10 14 7 -3 2 4 -11 15 -13 11 -22 24 -22 28 1 4 -2 17 -6 28 -3
11 -6 23 -5 28 1 4 -2 6 -6 6 -5 -1 -10 0 -13 1 -4 2 -129 7 -131 6z m32 -13
c-11 -5 -11 -7 0 -14 8 -5 9 -9 3 -9 -6 0 -16 6 -22 13 -8 10 -6 13 11 14 12
0 16 -1 8 -4z m26 -15 c-3 -8 -6 -5 -6 6 -1 11 2 17 5 13 3 -3 4 -12 1 -19z
m57 11 c-2 -4 -13 -7 -24 -6 -10 1 -17 4 -14 8 2 4 13 7 24 6 10 -1 17 -4 14
-8z m901 1 c3 -5 1 -10 -4 -10 -6 0 -11 5 -11 10 0 6 2 10 4 10 3 0 8 -4 11
-10z m-870 -20 c3 -6 -1 -7 -9 -4 -18 7 -21 14 -7 14 6 0 13 -4 16 -10z m600
-40 c-3 -5 -11 -10 -16 -10 -6 0 -7 5 -4 10 3 6 11 10 16 10 6 0 7 -4 4 -10z
m-375 -55 c7 -9 8 -15 2 -15 -5 0 -12 7 -16 15 -3 8 -4 15 -2 15 2 0 9 -7 16
-15z m291 -592 c13 -16 12 -17 -3 -4 -10 7 -18 15 -18 17 0 8 8 3 21 -13z"/>
<path d="M428 1248 c-7 -17 15 -19 29 -3 4 4 3 5 -4 2 -6 -4 -13 -2 -15 5 -3
8 -6 6 -10 -4z"/>
<path d="M730 1249 c0 -5 5 -7 10 -4 6 3 10 8 10 11 0 2 -4 4 -10 4 -5 0 -10
-5 -10 -11z"/>
<path d="M1327 1254 c-3 -3 -3 -12 0 -20 4 -10 0 -12 -11 -8 -9 3 -13 11 -9
17 3 6 1 7 -6 3 -6 -4 -8 -12 -5 -18 5 -7 -2 -9 -20 -4 -16 4 -26 2 -26 -4 0
-6 5 -8 12 -4 7 4 8 3 4 -5 -4 -6 -12 -9 -17 -6 -11 8 -51 -19 -42 -28 3 -4
-1 -7 -10 -7 -9 0 -17 -5 -17 -11 0 -5 6 -7 13 -3 7 4 9 3 4 -2 -8 -9 -12 -10
-39 -13 -9 -1 -8 -4 2 -11 11 -7 11 -10 2 -10 -7 0 -10 -5 -7 -10 8 -13 -14
-42 -26 -34 -5 3 -6 -2 -3 -11 5 -13 9 -13 23 -3 13 10 13 9 -1 -8 -20 -23
-24 -39 -6 -28 7 5 8 3 4 -5 -5 -7 -14 -10 -22 -7 -12 5 -12 2 -3 -17 16 -30
24 -37 15 -12 -4 11 -3 16 1 11 4 -4 9 -20 10 -34 4 -46 6 -52 15 -52 5 0 6
-4 3 -10 -3 -5 0 -7 8 -4 9 3 17 -3 20 -17 4 -15 11 -20 23 -15 12 5 15 2 10
-9 -4 -12 -2 -14 11 -6 13 7 23 3 40 -15 19 -21 26 -23 44 -13 19 10 21 9 16
-5 -5 -14 -3 -15 13 -6 15 8 24 5 46 -17 15 -16 22 -20 14 -10 -11 15 -11 17
4 11 9 -3 16 -10 16 -15 0 -6 10 -5 21 2 17 9 20 8 14 -2 -6 -9 -3 -11 8 -6
11 4 14 2 10 -9 -3 -7 0 -14 7 -14 6 0 8 -5 4 -12 -6 -9 -3 -9 9 0 14 12 17
10 22 -15 4 -15 8 -34 11 -41 2 -7 0 -11 -5 -7 -5 3 -20 -7 -33 -22 -12 -16
-32 -28 -43 -27 -11 0 -26 -4 -32 -9 -8 -6 -13 -6 -13 1 0 5 -18 9 -40 8 -30
-2 -40 2 -40 13 0 9 -3 12 -8 6 -4 -5 -13 -11 -21 -13 -12 -3 -12 0 -2 12 10
12 9 14 -8 9 -14 -3 -21 -1 -21 8 0 11 -2 11 -10 -1 -6 -10 -10 -11 -10 -2 0
6 -3 11 -7 11 -20 -3 -34 2 -28 11 3 6 0 10 -9 10 -8 0 -17 6 -19 13 -4 10 -6
9 -6 0 -1 -7 -6 -13 -12 -13 -5 0 -7 6 -3 13 4 7 3 9 -2 4 -5 -5 -9 -16 -9
-25 0 -9 -10 -27 -23 -40 -19 -19 -21 -26 -11 -38 9 -11 9 -14 -2 -14 -9 -1
-8 -4 4 -11 10 -6 14 -15 10 -22 -4 -7 1 -6 10 2 15 12 17 12 10 -4 -5 -14 -3
-17 9 -12 9 3 19 3 23 -1 4 -4 12 -7 18 -7 7 -1 11 -6 9 -13 -1 -7 2 -12 8
-12 5 0 10 7 10 15 0 8 4 15 10 15 5 0 7 -7 4 -15 -4 -10 0 -15 16 -15 11 0
19 -4 16 -9 -6 -9 42 -6 52 3 3 3 14 -2 25 -11 11 -10 17 -12 13 -5 -4 7 -1
12 9 12 10 0 14 -5 9 -12 -5 -10 -4 -10 6 -1 9 9 19 9 33 2 11 -6 17 -7 14 -2
-4 6 8 10 26 10 18 0 41 3 52 7 16 6 17 6 5 -3 -22 -16 -8 -13 29 5 19 9 28
20 24 27 -4 7 2 5 12 -3 11 -9 16 -10 11 -2 -4 7 -2 12 4 12 6 0 8 5 4 11 -4
7 2 7 17 -1 13 -7 21 -9 17 -5 -4 4 2 19 12 33 11 13 20 31 20 38 0 8 6 14 13
14 8 0 7 4 -3 10 -8 5 -10 10 -4 10 7 0 11 15 10 36 -1 19 2 41 6 47 4 7 0 23
-8 36 -9 13 -12 21 -6 17 6 -3 5 4 -1 18 -9 18 -15 22 -24 14 -9 -7 -11 -4 -8
11 2 12 0 19 -6 16 -5 -4 -9 2 -9 12 0 15 -2 16 -10 3 -8 -13 -10 -13 -10 2 0
9 -9 20 -20 23 -12 4 -17 11 -13 18 4 8 1 7 -9 -1 -10 -8 -17 -9 -20 -3 -1 6
-20 11 -40 13 -20 1 -34 6 -32 10 3 5 10 5 16 2 7 -4 8 -2 4 4 -4 6 -13 9 -21
6 -7 -3 -23 0 -35 6 -13 7 -20 7 -16 2 4 -6 -2 -8 -14 -5 -11 3 -17 10 -14 15
4 6 -2 5 -14 -1 -28 -15 -39 -14 -21 2 8 6 12 11 10 10 -2 -2 -11 3 -19 10
-11 8 -14 8 -9 0 4 -6 3 -14 -3 -18 -5 -3 -10 3 -10 14 0 14 -5 19 -20 16 -11
-2 -20 0 -20 5 0 4 -3 16 -7 26 -3 10 -2 15 3 12 5 -4 8 12 7 34 -1 28 2 37
10 29 7 -7 14 -5 23 6 10 14 15 15 27 5 12 -10 17 -10 23 -1 4 7 3 9 -3 6 -5
-3 -10 1 -10 9 0 11 6 9 24 -8 15 -14 23 -17 23 -8 0 7 3 10 7 7 3 -4 13 -1
21 6 13 10 14 9 7 -2 -6 -11 -4 -13 8 -8 9 3 19 2 22 -4 4 -5 11 -7 16 -3 17
10 61 -6 56 -20 -4 -9 1 -13 11 -11 9 1 20 -3 24 -8 4 -7 11 -7 21 1 7 7 17 8
21 4 4 -4 7 -2 6 3 -5 22 1 46 9 41 5 -4 7 4 3 16 -3 13 -1 19 5 15 6 -4 13 2
16 14 5 17 3 18 -9 8 -12 -10 -13 -9 -8 6 5 13 4 16 -4 11 -7 -4 -12 -2 -12 4
0 7 -9 9 -22 5 -17 -4 -19 -4 -9 3 11 8 9 11 -8 17 -13 4 -18 11 -14 18 4 7
-1 6 -10 -2 -9 -7 -17 -9 -17 -3 0 5 -10 13 -22 17 -13 4 -30 9 -38 12 -31 10
-125 8 -123 -3 1 -6 -4 -11 -12 -11 -8 0 -12 4 -9 8 5 9 -11 21 -19 13z m123
-14 c0 -5 -5 -10 -11 -10 -5 0 -7 5 -4 10 3 6 8 10 11 10 2 0 4 -4 4 -10z m55
-10 c20 -3 14 -6 -14 -5 -15 0 -28 5 -28 12 0 8 6 9 16 3 9 -4 21 -9 26 -10z
m-261 -38 c3 -5 -1 -9 -9 -9 -8 0 -12 4 -9 9 3 4 7 8 9 8 2 0 6 -4 9 -8z m166
-72 c0 -5 -5 -10 -11 -10 -5 0 -7 5 -4 10 3 6 8 10 11 10 2 0 4 -4 4 -10z
m191 -53 c-10 -9 -11 -8 -5 6 3 10 9 15 12 12 3 -3 0 -11 -7 -18z m-87 -422
c-4 -8 -11 -15 -16 -15 -6 0 -5 6 2 15 7 8 14 15 16 15 2 0 1 -7 -2 -15z"/>
<path d="M680 1239 c0 -5 5 -7 10 -4 6 3 10 8 10 11 0 2 -4 4 -10 4 -5 0 -10
-5 -10 -11z"/>
<path d="M3 1195 c0 -8 4 -12 9 -9 10 7 10 24 0 24 -5 0 -9 -7 -9 -15z"/>
<path d="M125 880 c3 -5 8 -10 11 -10 2 0 4 5 4 10 0 6 -5 10 -11 10 -5 0 -7
-4 -4 -10z"/>
<path d="M1245 840 c-3 -5 -1 -10 4 -10 6 0 11 5 11 10 0 6 -2 10 -4 10 -3 0
-8 -4 -11 -10z"/>
<path d="M496 692 c-3 -5 1 -9 9 -9 8 0 12 4 9 9 -3 4 -7 8 -9 8 -2 0 -6 -4
-9 -8z"/>
</g>
</svg>
